<svg width="196" height="196" viewBox="0 0 196 196" fill="none" xmlns="http://www.w3.org/2000/svg">
<path fill-rule="evenodd" clip-rule="evenodd" d="M150.705 66.6912V66.6905C150.732 65.6441 150.754 64.7307 150.731 63.7762C151.687 64.5535 152.617 65.3572 153.521 66.1874C153.541 68.4425 153.553 71.0696 153.55 74.1301C153.549 75.2651 153.837 75.2585 156.348 75.201C157.424 75.1763 158.907 75.1423 160.95 75.1846L160.961 75.1848C161.152 75.1889 161.313 75.1923 161.448 75.1686C162.419 76.543 163.328 77.9669 164.172 79.4407C168.15 86.3932 170.026 93.5876 170.054 100.651C169.673 101.011 169.533 101.412 169.716 101.659C169.816 101.794 169.922 101.841 170.041 101.833C170.027 102.374 170.004 102.914 169.968 103.452C168.682 100.262 164.303 100.145 163.056 103.003C163.097 102.324 163.117 101.642 163.117 100.957C163.117 90.6057 158.509 81.0131 150.701 73.2048C150.698 72.9722 150.693 72.7152 150.688 72.4316C150.678 71.872 150.666 71.208 150.66 70.421C150.65 68.9263 150.679 67.7418 150.705 66.6912ZM151.474 127.907C152.331 130.507 153.195 133.065 153.916 135.182C147.919 140.797 140.421 145.546 131.711 149.009C131.681 146.525 131.638 144.106 131.578 141.473C139.447 138.008 146.234 133.374 151.474 127.907ZM59.0522 139.09C50.9033 134.732 44.1945 129.037 39.549 122.454C38.8027 124.473 37.9049 126.995 36.8437 130.154C42.4796 136.857 50.0451 142.654 59.1537 146.978C59.1168 144.386 59.0816 141.707 59.0522 139.09ZM163.41 107.107C163.301 106.573 163.091 106.066 162.804 105.61C162.863 105.174 162.913 104.736 162.956 104.296C162.986 104.324 163.019 104.349 163.058 104.373C163.439 104.607 163.617 104.312 163.791 104.022C163.856 103.915 163.921 103.808 163.995 103.729C166.58 100.984 169.052 102.968 169.091 105.525C168.862 105.589 168.664 105.643 168.488 105.692L168.143 105.786C167.008 106.099 166.756 106.167 163.41 107.107ZM132.661 53.2408C131.349 55.2428 130.699 57.6895 131.074 60.2035C121.316 55.9928 109.927 53.5716 97.7697 53.5716C96.2202 53.5716 94.6832 53.6109 93.1605 53.6882C92.7955 53.5483 92.4605 53.4126 92.1536 53.2884C90.4776 52.6099 89.6466 52.2734 89.4133 53.4538C89.3795 53.6247 89.3462 53.7955 89.3134 53.9665C78.8027 54.9555 69.0689 57.7621 60.7322 61.9356C60.5994 61.8433 60.482 61.7051 60.6343 61.5566C61.2529 60.953 61.2303 60.2244 61.2078 59.4965C61.2022 59.3169 61.1966 59.1372 61.2007 58.9596C61.2695 56.0531 58.8998 56.1072 56.6744 56.1582L56.5526 56.161C66.7758 50.8865 78.5649 47.8132 90.6121 46.9414C90.6347 47.1639 90.6584 47.395 90.6833 47.6355C91.1067 51.7359 93.593 52.2994 97.6335 53.1608C101.248 53.9319 103.04 50.6878 104.822 47.4616L104.877 47.3621C104.954 47.2224 105.033 47.0859 105.113 46.9523C114.682 47.6592 124.082 49.7553 132.661 53.2408ZM39.9177 78.9349C36.1601 78.9391 33.546 78.9386 31.7303 78.851C31.6148 79.0467 31.5006 79.2433 31.3875 79.4407C27.0892 86.9452 25.242 94.7333 25.524 102.335C27.9317 102.973 30.298 103.752 32.6216 104.674C32.4896 103.448 32.4223 102.207 32.4223 100.957C32.4223 93.0128 35.1323 85.5185 39.9177 78.9349Z" fill="#443DF6"/>
<path d="M114.99 30.9424C114.797 41.2706 108.246 41.2657 104.877 47.3623C103.076 50.6208 101.285 53.94 97.6335 53.1609C93.5929 52.2995 91.1067 51.736 90.6833 47.6357C89.7533 38.6364 90.4305 42.5985 88.3597 37.0733C86.0185 30.8248 88.2617 22.1753 95.3883 18.8178C104.759 14.4039 115.169 21.3952 114.99 30.9424ZM89.1016 31.8989C89.0624 36.0766 90.6814 37.6593 91.2488 40.0603C92.6492 45.9775 91.4938 49.1135 93.6312 50.4669C94.0976 50.7629 94.275 50.7011 94.4514 50.1739C95.4471 47.1869 96.2429 44.1361 96.8916 41.056C97.0239 40.4298 96.872 40.1759 96.286 39.9427C94.3152 39.1587 93.6243 36.7165 94.8219 34.9839C95.8901 33.4375 98.1039 33.1876 98.688 35.8816C99.1574 38.0484 97.9853 39.3547 99.1956 39.4743C99.7816 39.5321 100.385 39.9231 100.679 38.947C101.886 34.9427 105.296 34.5723 105.736 37.4241C106.095 39.7467 104.249 41.6391 101.929 41.2902C101.557 41.2343 101.229 41.1158 101.05 41.6616C100.877 42.1898 97.9647 51.248 98.7066 51.6576C101.147 53.0051 103.24 45.0818 108.118 41.2706C118.375 33.2552 111.231 17.34 99.0388 19.6773C93.2245 20.7915 89.1584 25.7886 89.1006 31.8998L89.1016 31.8989ZM96.6182 51.5596C97.6335 51.8134 97.414 48.3041 99.6248 41.7194C99.7424 41.3686 100.016 40.9335 99.3122 40.8404C98.8438 40.7786 98.3126 40.3514 98.1411 41.3088C96.3438 51.3176 93.9242 51.0706 96.6182 51.5586V51.5596ZM97.4385 37.1899C97.4581 32.2889 93.8771 37.0517 96.579 38.5766C97.5012 39.097 97.3209 38.3424 97.4385 37.1899ZM104.506 37.9513C104.512 36.8185 103.837 36.3069 102.964 37.3849C102.492 37.968 102.221 38.6736 101.909 39.3371C101.322 40.5866 104.496 40.0005 104.506 37.9504V37.9513Z" fill="#0B0D0E"/>
<path d="M88.7498 58.4911C88.785 56.7927 89.0859 55.1336 89.4132 53.4735C89.8875 51.0735 92.8305 55.0483 100.327 55.211C101.03 55.2267 101.211 55.5246 101.089 56.1871C100.716 58.201 100.027 60.1081 99.1564 61.9466C98.1509 64.0702 88.6616 62.7854 88.7498 58.4911ZM91.3076 56.5781C91.092 56.4625 90.7431 56.4037 90.8783 56.0509C91.1762 55.2718 94.1799 57.6532 99.371 57.3788C100.016 57.3445 99.9374 56.8711 100.034 56.4811C100.113 56.1685 99.9169 56.1744 99.6826 56.1685C92.6874 56.0127 90.6608 53.005 90.3305 54.1183C89.9375 55.4452 89.0046 59.1918 90.2325 60.015C93.048 61.9025 97.852 62.5159 98.4135 61.2253C100.796 55.7481 98.8163 60.6108 91.3066 56.5781H91.3076Z" fill="#0B0D0E"/>
<path d="M141.738 69.2694C138.791 69.2851 138.598 68.3227 138.009 69.387C137.849 69.6771 136.799 71.398 136.428 71.4764C135.041 71.7684 133.85 75.4787 130.57 79.2468C127.7 82.5455 122.656 81.443 131.527 69.6408C132.466 68.3923 131.021 68.6657 133.089 66.1658C133.46 65.7169 133.483 65.4406 133.108 64.9359C125.902 55.2339 138.448 42.8437 147.947 51.2492C155.021 57.5094 151.168 69.2194 141.738 69.2704V69.2694ZM141.563 68.1953C146.484 68.1953 150.427 64.2126 150.427 59.2342C150.427 54.1382 146.093 49.8047 140.977 49.7841C135.999 49.7645 132.034 53.708 132.034 58.6482C132.034 63.8412 136.369 68.1953 141.562 68.1953H141.563ZM127.74 78.9146C127.427 82.9953 134.609 71.8664 134.574 71.3784C134.53 70.7737 133.578 70.6551 133.109 70.2073C132.68 69.7967 132.484 69.9525 132.23 70.3827C129.742 74.6143 128.443 76.396 127.74 78.9146ZM137.482 68.606C137.443 68.4109 137.326 68.3521 137.189 68.2933C134.575 67.1771 134.537 65.9521 134.027 66.692C132.513 68.8853 132.66 68.899 134.515 70.0505C136.31 71.1647 136.097 70.4993 137.482 68.606Z" fill="#0B0D0E"/>
<path d="M165.192 46.7989C165.266 45.0506 165.536 45.0673 166.3 45.079C173.895 45.1947 174.115 44.6302 174.11 46.0355C174.051 64.7398 173.758 70.363 173.758 74.0723C173.758 75.2238 173.583 74.8838 166.338 74.97C165.643 74.9779 165.376 74.9798 165.29 73.4393C165.191 71.6919 165.113 48.6208 165.191 46.7989H165.192ZM166.222 73.0963C166.217 74.3458 166.476 73.7793 171.747 73.9165C173.25 73.9557 172.604 73.9557 172.957 52.7132C173.06 46.5245 173.582 46.111 172.294 46.1531C166.28 46.3521 166.183 45.7239 166.183 46.993C166.183 47.0322 166.241 68.3521 166.222 73.0972V73.0963Z" fill="#0B0D0E"/>
<path d="M160.95 75.1846C154.136 75.0435 153.549 75.7511 153.55 74.1301C153.57 52.4584 152.808 52.5241 154.644 52.5172C162.357 52.4878 162.39 52.2634 162.356 53.2787C161.621 75.2405 162.765 75.2228 160.95 75.1846ZM154.488 73.3295C154.483 74.6574 155.134 73.6098 160.267 74.1105C161.634 74.2438 160.417 73.3716 161.4 54.1568C161.462 52.9465 161.029 53.5609 155.192 53.3953C153.884 53.3581 154.558 53.3757 154.489 73.3295H154.488Z" fill="#0B0D0E"/>
<path d="M150.661 70.4208C150.7 75.0288 150.935 75.4139 149.802 75.3992C142.617 75.3081 142.129 75.8676 142.207 74.4035C142.402 70.7334 141.778 69.972 142.734 69.972C143.203 69.972 143.217 69.9328 143.144 73.7401C143.123 74.8337 144.025 73.7822 148.825 74.3653C149.763 74.479 149.625 74.4437 149.645 67.2191C149.647 66.3401 150.328 65.5012 150.621 65.6178C150.914 65.6962 150.621 65.5982 150.66 70.4208H150.661Z" fill="#0B0D0E"/>
<path d="M141.68 66.653C131.234 66.751 130.98 51.365 140.957 51.2287C145.292 51.1699 148.952 54.7234 148.982 58.9992C149.011 63.3141 145.857 66.6138 141.68 66.653ZM148.104 59.2138C148.143 55.3673 144.979 52.1666 141.055 52.1264C137.385 52.0882 134.396 54.9772 134.339 58.6669C134.28 62.4938 137.58 65.8611 141.407 65.8905C145.116 65.9189 148.065 62.9623 148.104 59.2128V59.2138Z" fill="#0B0D0E"/>
<path d="M143.168 63.6883C143.13 64.4096 143.002 64.4566 142.636 64.4664C141.931 64.486 142.128 64.4616 142.128 55.7004C142.128 54.8409 142.168 54.5097 142.695 54.5097C143.024 54.5097 143.105 54.4959 143.118 55.5749C143.127 56.2883 143.204 63.0239 143.168 63.6893V63.6883Z" fill="#0B0D0E"/>
<path d="M164.211 133.133C163.491 133.395 163.729 132.119 156.714 120.969C156.616 120.814 156.46 120.657 156.558 120.286C160.834 124.347 165.251 132.755 164.212 133.133H164.211Z" fill="#0B0D0E"/>
<path d="M154.526 118.099C160.183 135.564 159.896 135.632 160.872 135.319C160.892 135.319 183.031 128.228 184.222 127.919C185.14 127.682 185.511 128.68 184.555 128.994C179.984 130.492 182.576 129.655 161.34 136.237C159.582 136.782 159.524 136.53 159.134 135.397L153.297 118.215C152.594 116.106 152.594 116.088 154.664 115.345C160.971 113.082 175.34 108.726 175.379 108.726C175.808 108.609 176.417 108.178 176.628 108.882C176.846 109.603 176.804 109.409 155.503 116.125C153.337 116.808 154.722 115.929 159.72 120.518C166.886 127.097 165.949 130.049 169.405 128.934C189.929 122.309 190.486 123.198 189.417 121.866C187.435 119.394 187.486 119.231 187.855 118.899C188.266 118.529 188.401 119.036 188.538 119.211C192.009 123.623 192.267 123.195 187.269 124.541C185.746 124.952 187.034 125.401 187.875 130.027C188.265 132.176 187.309 133.721 185.181 134.362C159.675 142.038 156.811 143.558 155.543 139.868C154.429 136.627 147.881 117.689 147.44 114.233C147.081 111.422 149.072 111.34 153.278 109.977C153.513 109.9 153.831 109.761 153.864 110.191C153.887 110.503 154.058 110.85 153.512 110.972C146.039 112.643 147.678 111.837 156.167 138.306C157.324 141.917 159.135 140.925 167.062 138.482C189.458 131.578 187.808 133.988 185.239 125.596C185.083 125.088 184.751 125.342 184.497 125.42C168.325 130.418 170.417 129.709 168.311 130.379C166.552 130.94 166.456 129.189 160.169 122.55C158.08 120.344 154.585 117.552 154.449 117.688C154.39 117.786 154.489 117.981 154.527 118.098L154.526 118.099Z" fill="#0B0D0E"/>
<path d="M187.776 115.033C187.142 109.928 180.723 109.247 178.516 110.742C175.763 112.607 174.769 114.938 175.71 117.435C178.307 124.367 188.557 121.341 187.776 115.034V115.033ZM186.156 118.06C185.082 119.876 182.797 120.852 180.591 120.442C174.344 119.309 175.379 110.738 181.744 110.875C185.727 110.954 188.109 114.819 186.157 118.061L186.156 118.06Z" fill="#0B0D0E"/>
<path d="M177.233 105.35C178.095 106.245 178.436 108.28 179.242 109.416C179.812 110.219 179.891 109.441 179.873 109.289C179.72 108 178.775 105.834 177.845 104.682C176.845 103.443 177.001 105.11 177.233 105.351V105.35Z" fill="#0B0D0E"/>
<path d="M168.838 108.219C167.708 107.63 169.759 106.891 168.917 104.353C168.294 102.479 166.227 101.391 164.016 103.728C163.74 104.019 163.6 104.693 163.079 104.372C162.586 104.068 162.879 103.472 163.059 103.044C164.276 100.16 168.768 100.198 170.049 103.571C170.881 105.761 169.953 108.8 168.838 108.218V108.219Z" fill="#0B0D0E"/>
<path d="M155.972 110.582C155.975 111.48 155.778 112.942 154.917 112.652C153.806 112.278 155.469 111.302 154.527 109.138C153.498 106.773 150.315 106.621 149.315 109.293C148.868 110.485 149.159 111.025 148.592 110.972C147.657 110.885 147.927 107.296 150.643 106.364C153.335 105.441 155.963 107.535 155.973 110.581L155.972 110.582Z" fill="#0B0D0E"/>
<path d="M163.528 107.888C163.512 108.846 162.706 110.78 161.887 110.251C161.496 109.998 161.648 109.682 161.848 109.353C163.962 105.884 158.76 102.838 156.479 105.859C156.26 106.149 156.147 106.815 155.678 106.542C155.073 106.19 155.931 103.602 158.899 103.418C161.241 103.272 163.567 105.409 163.527 107.888H163.528Z" fill="#0B0D0E"/>
<path d="M157.141 120.706C161.227 124.949 165.2 132.762 164.21 133.113C163.488 133.369 163.761 132.079 156.713 120.95C156.36 120.455 156.437 119.975 157.141 120.706Z" fill="#0B0D0E"/>
<path d="M176.198 104.217C176.316 106.755 174.068 107.028 174.714 105.447C175.473 103.591 174.597 101.777 172.703 101.191C171.004 100.665 170.299 102.365 169.775 101.659C169.342 101.076 170.713 99.6249 172.801 99.9218C174.696 100.191 176.296 102.147 176.199 104.217H176.198Z" fill="#0B0D0E"/>
<path d="M157.084 110.055C156.616 108.727 157.281 108.793 160.911 107.81C161.126 107.752 161.495 107.42 161.555 107.946C161.687 109.099 161.907 108.727 157.084 110.055Z" fill="#0B0D0E"/>
<path d="M164.367 108.064C164.152 107.243 164.25 106.722 165.206 106.599C165.93 106.506 166.629 106.177 167.354 106.033C167.567 105.991 168.007 105.605 168.076 106.169C168.212 107.285 168.115 107.009 164.367 108.063V108.064Z" fill="#0B0D0E"/>
<path d="M174.383 104.705C174.442 105.193 174.351 105.359 171.982 105.916C171.807 105.957 171.424 106.266 171.377 105.837C171.343 105.525 171.102 105.014 171.728 104.861C173.931 104.322 174.501 103.807 174.383 104.705Z" fill="#0B0D0E"/>
<path d="M183.285 113.628C182.602 115.912 182.43 115.319 184.457 116.322C184.769 116.477 185.004 116.693 184.808 117.064C184.342 117.944 183.125 116.334 182.426 116.732C181.718 117.134 181.879 119.093 180.981 118.762C179.869 118.352 182.762 116.111 179.537 115.268C178.776 115.069 178.85 113.93 180.005 114.37C180.531 114.57 181.137 115.012 181.587 114.878C182.25 114.68 182.074 112.674 182.992 112.906C183.305 112.984 183.227 113.296 183.285 113.628Z" fill="#0B0D0E"/>
<path d="M88.886 168.667C58.604 168.667 59.582 170.776 59.4439 163.728C59.3282 157.851 58.753 126.047 59.0724 120.853C59.194 118.881 59.8143 118.66 72.0369 118.901C88.5156 119.225 94.3329 118.655 128.52 119.056C130.414 119.079 130.967 119.193 131.019 120.989C131.662 143.049 131.657 147.308 131.761 164.723C131.78 167.828 131.293 167.651 128.969 167.691C101.303 168.167 103.452 167.905 103.626 168.842C104.762 174.913 104.192 175.436 105.696 175.363C108.351 175.236 109.638 177.139 109.347 177.764C109.111 178.271 109.367 178.124 94.7631 178.37C82.7169 178.572 82.8884 178.683 82.7169 178.155C82.3563 177.045 84.4936 175.796 87.071 175.715C88.2617 175.678 87.4611 175.637 88.887 168.667H88.886ZM63.407 127.647C62.0203 127.645 62.6151 127.627 62.9581 157.363C62.9768 159.003 62.9581 158.547 65.4963 158.476C78.206 158.114 117.275 157.842 126.861 157.812C128.15 157.808 127.544 157.832 127.564 148.968C127.567 147.484 127.583 148.186 88.2421 148.343C71.7938 148.408 66.5028 148.475 64.8005 148.347C63.6432 148.259 63.7314 147.749 64.7858 147.671C67.5377 147.469 79.1409 147.279 126.784 147.132C128.111 147.128 127.457 147.152 127.447 128.135C127.447 127.638 126.92 127.501 125.791 127.537C121.968 127.66 110.102 127.699 63.408 127.647H63.407ZM77.0937 162.224C59.7957 162.404 60.4542 161.874 60.5571 162.966C60.8374 165.954 60.3239 167.468 62.5485 167.671C63.3688 167.747 62.7259 167.658 129.126 166.402C131.058 166.366 130.395 165.251 130.512 162.028C130.552 160.954 134.379 161.63 77.0946 162.223L77.0937 162.224ZM116.787 126.534C128.209 126.514 127.542 126.632 127.447 125.772C127.246 123.957 127.838 123.276 126.784 123.293C122.391 123.362 80.9794 123.22 76.6066 123.214C62.0222 123.195 62.4044 122.708 62.5299 123.898C62.8043 126.496 62.1781 127.002 63.3305 126.983C63.3893 126.982 105.639 126.552 116.788 126.534H116.787ZM101.05 169.566C100.894 168.726 99.8963 168.999 99.8591 169.644C99.6582 173.06 103.452 182.471 101.05 169.566Z" fill="#0B0D0E"/>
<path d="M124.069 131.453C124.04 144.749 124.479 144.67 122.878 144.672C105.697 144.691 105.757 145.258 105.736 143.774C105.552 130.654 104.935 130.454 106.478 130.459C124.108 130.517 124.073 129.599 124.069 131.454V131.453ZM107.259 131.453C106.165 131.45 106.673 131.434 106.712 143.051C106.716 144.085 106.693 143.666 122.39 143.714C123.504 143.718 123.015 143.734 123.034 131.961C123.036 130.848 122.898 131.492 107.258 131.453H107.259Z" fill="#0B0D0E"/>
<path d="M68.1129 142.523C67.3123 142.504 67.3123 141.669 68.0737 141.626C72.0976 141.395 93.2597 141.098 99.9767 141.098C100.504 141.098 101.064 141.041 101.11 141.567C101.162 142.192 100.563 142.176 99.9188 142.192C72.3544 142.863 67.8013 142.505 68.1139 142.524L68.1129 142.523Z" fill="#0B0D0E"/>
<path d="M93.591 132.122C94.4544 132.185 94.4534 132.332 94.4701 132.644C94.5073 133.347 94.5093 133.326 82.0721 133.307C67.0575 133.286 66.9722 133.229 66.9997 132.624C67.0134 132.327 67.0781 132.175 68.356 132.097C69.9348 132.001 92.2954 132.026 93.592 132.121L93.591 132.122Z" fill="#0B0D0E"/>
<path d="M92.1288 135.195C92.9991 135.261 92.9942 135.41 92.9863 135.729C92.9648 136.668 92.8609 136.266 69.3624 136.237C68.9156 136.237 67.2907 136.196 67.3123 135.67C67.3348 135.123 67.3711 135.182 74.5751 135.104C74.5751 135.104 90.8705 135.1 92.1288 135.194V135.195Z" fill="#0B0D0E"/>
<path d="M88.6998 155.268C87.5503 155.199 87.4464 154.94 87.5189 154.141C87.7188 151.955 86.7182 150.856 88.5146 150.802C99.9943 150.459 95.3089 150.689 100.132 150.607C101.245 150.589 100.84 151.193 100.932 154.356C100.952 155.016 100.84 155.199 99.5954 155.233C98.6321 155.26 89.6563 155.327 88.6998 155.269V155.268ZM92.1465 151.642C87.8903 151.612 88.0471 151.33 88.2029 153.653C88.2813 154.824 88.1637 154.436 97.8285 154.356C100.132 154.337 100.093 154.336 100.074 152.032C100.07 151.567 100.099 151.441 99.0192 151.42C98.196 151.403 94.1388 151.657 92.1474 151.642H92.1465Z" fill="#0B0D0E"/>
<path d="M68.0385 139.195C66.8409 139.108 67.0555 138.474 67.8454 138.373C69.4085 138.173 75.0072 138.239 95.1541 138.19C96.0331 138.188 96.6172 138.229 96.5986 138.737C96.577 139.342 95.9734 139.264 93.6704 139.264C81.8584 139.264 69.3566 139.292 68.0385 139.196V139.195Z" fill="#0B0D0E"/>
<path d="M95.9341 163.415C97.6913 163.49 97.6139 166.12 95.8166 166.089C94.079 166.061 94.0006 163.333 95.9341 163.415Z" fill="#0B0D0E"/>
<path d="M66.8242 124.171C66.785 124.561 65.6737 125.185 66.7262 126.026C66.8242 126.104 66.4734 126.67 66.1598 126.299C65.1671 125.125 64.5555 127.18 63.993 126.417C63.4628 125.697 65.2229 125.48 64.2468 124.758C63.7196 124.368 64.4174 123.649 64.8329 124.172C65.6433 125.195 66.395 123.117 66.8242 124.172V124.171Z" fill="#0B0D0E"/>
<path d="M69.6937 125.127C69.6153 126.143 68.3785 126.181 68.2884 125.225C68.2031 124.326 69.4399 124.21 69.6937 125.127Z" fill="#0B0D0E"/>
<path d="M27.2871 139.654C22.64 139.322 11.4513 135.911 6.78649 134.227C4.79415 133.506 4.79415 133.172 4.97055 131.962C6.25141 123.195 11.269 111.115 14.8499 103.008C15.927 100.569 15.9436 100.528 18.5592 100.918C24.5725 101.816 30.3506 103.536 35.8768 106.093C38.4532 107.285 39.2745 107.303 38.7472 108.572C29.9664 129.699 29.1609 140.318 27.2861 139.655L27.2871 139.654ZM17.1735 101.992C16.5679 101.777 7.48523 124.089 6.22005 131.707C6.08089 132.546 5.96427 132.71 11.023 134.324C15.9995 135.911 21.0063 137.335 26.1346 138.326C26.8187 138.458 27.1137 138.365 27.3057 137.623C35.1369 107.465 39.4068 109.127 36.0522 107.517C29.5813 104.41 20.7064 102.401 17.1725 101.992H17.1735Z" fill="#0B0D0E"/>
<path d="M30.919 146.273C26.2336 145.901 14.945 142.551 9.85195 140.592C8.13301 139.93 8.46621 139.752 8.95425 136.511C9.07185 135.73 10.3047 135.789 10.145 136.824C9.78137 139.187 9.77549 139.201 12.0197 140.006C19.3266 142.627 29.9449 145.319 30.626 144.965C30.9974 144.771 31.0072 143.888 31.1532 143.305C37.3351 118.529 42.1263 115.209 40.4662 114.488C37.8113 113.334 37.5379 113.238 37.9084 112.496C38.2406 111.833 38.2602 112.26 41.9303 113.844C43.512 114.526 42.2174 113.94 36.2874 131.884C31.7138 145.726 32.0313 146.606 30.918 146.274L30.919 146.273Z" fill="#0B0D0E"/>
<path d="M19.7705 115.073C21.2934 115.228 29.8361 117.322 29.3961 118.626C29.2246 119.135 28.713 118.976 28.3416 118.88C26.021 118.282 19.9058 116.208 19.5951 116.088C19.3011 115.974 18.963 115.833 19.0287 115.424C19.0982 114.993 19.4775 115.073 19.7705 115.073Z" fill="#0B0D0E"/>
<path d="M31.4462 111.656C30.3526 111.558 23.813 109.33 22.9536 109.04C22.4851 108.882 21.6629 108.844 21.8207 108.142C21.9745 107.458 22.7193 107.807 23.1486 107.888C32.6918 109.704 33.028 111.656 31.4462 111.656Z" fill="#0B0D0E"/>
<path d="M25.7446 126.319C24.9635 126.241 25.383 126.351 17.1539 123.645C16.6257 123.471 16.022 123.255 16.1582 122.785C16.5101 121.575 25.136 124.625 26.1738 125.323C26.7579 125.716 26.7795 126.358 25.7446 126.319Z" fill="#0B0D0E"/>
<path d="M13.4838 120.617C16.1396 120.749 15.7682 124.004 13.4838 123.956C11.1406 123.906 11.024 120.496 13.4838 120.617Z" fill="#0B0D0E"/>
<path d="M16.2758 113.237C18.9895 113.247 18.6974 116.646 16.3542 116.576C14.1287 116.509 13.8356 113.228 16.2758 113.237Z" fill="#0B0D0E"/>
<path d="M19.0483 105.974C21.6257 106.014 21.5081 109.283 19.1463 109.313C16.9207 109.342 16.5297 105.936 19.0483 105.974Z" fill="#0B0D0E"/>
<path d="M45.0349 78.9334C28.9472 78.905 27.6683 79.2264 27.6585 76.6294C27.6585 76.6098 27.5027 58.765 27.5027 58.7454C27.5125 57.0275 27.7761 56.7981 37.7143 56.7148C39.5107 56.7001 40.5103 56.6962 41.112 54.8401C41.8195 52.6547 41.6549 49.7617 42.6545 47.3627C43.8021 44.6079 47.3183 44.7873 48.8824 47.0109C49.9545 48.5348 50.2103 50.2321 50.4249 55.3673C50.4837 56.7727 51.4794 56.2464 56.2236 56.168C58.5668 56.1288 61.2755 55.8554 61.202 58.96C61.1814 59.8577 61.4068 60.8044 60.6355 61.557C60.4376 61.7501 60.6953 61.9265 60.8502 62.0059C61.4793 62.3302 61.4509 62.7869 61.3774 65.5005C61.3362 67.0235 59.7731 66.8921 60.6747 67.4527C61.2774 67.8271 61.497 68.4092 61.397 69.0736C61.2245 70.2261 61.5705 71.5119 60.4993 72.4321C59.9319 72.9191 61.2794 72.8417 61.2216 74.9115C61.0834 79.8507 62.0614 78.9638 45.0359 78.9334H45.0349ZM57.7651 77.3517C59.4047 77.3478 59.8711 76.844 59.9123 75.2623C59.9495 73.857 59.9515 73.1642 57.8621 73.0564C54.5635 72.8858 53.5766 73.2514 53.5864 72.3145C53.5933 71.6902 53.8402 71.4864 58.6432 71.5922C59.4635 71.6099 59.7722 71.2208 59.8535 70.4986C60.2269 67.1969 58.312 68.0309 54.3479 67.7457C53.2356 67.6654 53.1768 66.4384 54.4263 66.359C57.5113 66.165 59.5203 66.8667 59.8349 65.2075C60.7855 60.1889 53.5149 64.0168 53.4894 61.654C53.4737 60.1899 59.7261 62.3969 59.8741 59.8577C59.9985 57.7105 59.3272 57.5184 53.3336 57.7683C50.9522 57.8673 48.6727 58.1584 48.511 55.679C48.2278 51.3444 48.3934 49.7245 47.6319 48.2016C46.9685 46.8737 44.9154 46.3072 44.2735 48.4162C43.3121 51.5777 43.6482 53.668 42.7505 55.6398C41.3638 58.6856 38.807 58.5082 35.0967 58.373C33.4758 58.3142 34.7126 58.5298 34.3941 75.3986C34.3578 77.3115 34.4137 77.2752 36.3266 77.3311C37.0293 77.3517 37.2704 77.1949 37.2831 76.452C37.3194 74.4607 37.5193 63.7228 37.6732 61.7501C37.7124 61.2424 38.3327 61.0876 38.4738 61.7305C38.663 62.5909 38.4738 76.6667 38.4738 76.6863C38.4542 77.6437 38.415 77.3987 57.7641 77.3497L57.7651 77.3517ZM32.8721 59.4481C32.8917 58.1202 32.4037 58.4367 30.1781 58.4916C28.4798 58.5337 28.8708 59.0776 28.9678 63.8218C29.2432 77.3135 28.7532 77.1557 30.3927 77.1959C32.6771 77.2527 32.9799 77.4301 32.9701 76.4932C32.9701 76.454 32.8339 61.9863 32.8721 59.449V59.4481Z" fill="#0B0D0E"/>
</svg>
